<svg id="Capa_1" enable-background="new 0 0 335.761 335.761" height="512" viewBox="0 0 335.761 335.761" width="512" xmlns="http://www.w3.org/2000/svg"><g><path d="m41.04 0h253.681c8.157 0 14.77 6.613 14.77 14.77v223.018c0 8.157-6.613 14.77-14.77 14.77h-253.681c-8.157 0-14.77-6.613-14.77-14.77v-223.018c0-8.157 6.613-14.77 14.77-14.77z" fill="#d5d6db"/><path d="m48.979 133.518h-7.073v-35.53c.019-6.285 5.117-11.371 11.401-11.377h227.584c6.276.016 11.36 5.1 11.377 11.377v32.117h-7.059v-32.117c-.011-2.378-1.94-4.301-4.318-4.303h-227.584c-2.387.003-4.323 1.936-4.328 4.323z" fill="#3e6b82"/><path d="m280.678 107.485h16.14c3.084 0 5.584 2.5 5.584 5.584v51.487c0 3.084-2.5 5.584-5.584 5.584h-16.14c-3.084 0-5.584-2.5-5.584-5.584v-51.486c0-3.085 2.5-5.585 5.584-5.585z" fill="#3a556a"/><path d="m38.938 107.485h16.14c3.084 0 5.584 2.5 5.584 5.584v51.487c0 3.084-2.5 5.584-5.584 5.584h-16.14c-3.084 0-5.584-2.5-5.584-5.584v-51.486c0-3.085 2.5-5.585 5.584-5.585z" fill="#3a556a"/><path d="m248.364 250.881h28.635c4.333 0 7.845 3.512 7.845 7.845v69.2c-.003 4.33-3.515 7.838-7.845 7.835h-28.64c-4.33 0-7.84-3.51-7.84-7.84v-69.2c0-4.33 3.51-7.84 7.84-7.84z" fill="#2f4859"/><path d="m58.763 250.881h28.64c4.33 0 7.84 3.51 7.84 7.84v69.2c0 4.33-3.51 7.84-7.84 7.84h-28.64c-4.333 0-7.845-3.512-7.845-7.845v-69.195c0-4.33 3.51-7.84 7.84-7.84z" fill="#2f4859"/><path d="m253.399 53.693c-56.349-12.297-114.687-12.297-171.037 0-6.819 1.538-11.654 7.607-11.628 14.597v234.84h194.294v-234.84c.025-6.99-4.81-13.059-11.629-14.597z" fill="#ea6453"/><path d="m265.028 204.914c-13.536 0-24.509 10.973-24.509 24.509v73.701h49.014v-73.701c-.001-13.533-10.971-24.506-24.505-24.509z" fill="#fe7058"/><path d="m70.734 204.914c-13.534.003-24.504 10.975-24.504 24.509v73.701h49.014v-73.701c-.001-13.535-10.974-24.509-24.51-24.509z" fill="#fe7058"/><g fill="#2f4859"><path d="m117.225 210.311h101.307v7.983h-101.307z"/><path d="m117.225 229.745h101.307v7.983h-101.307z"/><path d="m117.225 249.185h101.307v7.983h-101.307z"/><path d="m117.225 268.619h101.307v7.983h-101.307z"/></g><path d="m294.914 292.931h-254.067c-4.57 0-8.275 3.705-8.275 8.275s3.705 8.275 8.275 8.275h254.067c4.57 0 8.275-3.705 8.275-8.275s-3.705-8.275-8.275-8.275z" fill="#3e6b82"/><path d="m95.248 92.503h145.276v79.038h-145.276z" fill="#3a556a"/><path d="m124.709 64.437h86.344v13.657h-86.344z" fill="#3a556a"/><path d="m265.819 216.479c-7.327 0-13.266 5.94-13.266 13.266s5.939 13.266 13.266 13.266 13.266-5.939 13.266-13.266c.001-7.326-5.939-13.266-13.266-13.266z" fill="#ebf0f3"/><path d="m69.942 216.479c-7.327 0-13.266 5.94-13.266 13.266s5.939 13.266 13.266 13.266 13.266-5.939 13.266-13.266c0-7.326-5.939-13.266-13.266-13.266z" fill="#ebf0f3"/><path d="m265.819 249.185c-7.327 0-13.266 5.94-13.266 13.266 0 7.327 5.939 13.266 13.266 13.266s13.266-5.939 13.266-13.266c.001-7.327-5.939-13.266-13.266-13.266z" fill="#ebf0f3"/><path d="m69.942 249.185c-7.327 0-13.266 5.94-13.266 13.266 0 7.327 5.939 13.266 13.266 13.266s13.266-5.939 13.266-13.266c0-7.327-5.939-13.266-13.266-13.266z" fill="#ebf0f3"/></g></svg>